<?xml version="1.0" encoding="UTF-8" standalone="no"?>
<svg
   xmlns:dc="http://purl.org/dc/elements/1.1/"
   xmlns:cc="http://creativecommons.org/ns#"
   xmlns:rdf="http://www.w3.org/1999/02/22-rdf-syntax-ns#"
   xmlns:svg="http://www.w3.org/2000/svg"
   xmlns="http://www.w3.org/2000/svg"
   xmlns:sodipodi="http://sodipodi.sourceforge.net/DTD/sodipodi-0.dtd"
   xmlns:inkscape="http://www.inkscape.org/namespaces/inkscape"
   width="48"
   height="48"
   viewBox="0 0 12.7 12.7"
   version="1.1"
   id="svg8"
   inkscape:version="1.0.1 (3bc2e813f5, 2020-09-07)"
   sodipodi:docname="favicon.svg">
  <defs
     id="defs2">
    <rect
       x="2.1166667"
       y="2.38125"
       width="4.4979166"
       height="5.0270833"
       id="rect840" />
    <rect
       x="2.1166667"
       y="2.38125"
       width="4.4979166"
       height="5.0270833"
       id="rect848" />
    <rect
       x="2.1166667"
       y="2.38125"
       width="4.4979166"
       height="5.0270833"
       id="rect854" />
  </defs>
  <sodipodi:namedview
     id="base"
     pagecolor="#ffffff"
     bordercolor="#666666"
     borderopacity="1.0"
     inkscape:pageopacity="0.0"
     inkscape:pageshadow="2"
     inkscape:zoom="15.839192"
     inkscape:cx="29.878614"
     inkscape:cy="22.588725"
     inkscape:document-units="px"
     inkscape:current-layer="layer2"
     inkscape:document-rotation="0"
     showgrid="true"
     units="px"
     inkscape:window-width="1920"
     inkscape:window-height="1017"
     inkscape:window-x="-8"
     inkscape:window-y="-8"
     inkscape:window-maximized="1">
    <inkscape:grid
       type="xygrid"
       id="grid833" />
  </sodipodi:namedview>
  <metadata
     id="metadata5">
    <rdf:RDF>
      <cc:Work
         rdf:about="">
        <dc:format>image/svg+xml</dc:format>
        <dc:type
           rdf:resource="http://purl.org/dc/dcmitype/StillImage" />
        <dc:title />
      </cc:Work>
    </rdf:RDF>
  </metadata>
  <g
     inkscape:label="background"
     inkscape:groupmode="layer"
     id="layer1"
     style="display:inline">
    <circle
       style="fill:#ffffff;fill-opacity:1;stroke:#000000;stroke-width:0.1;stroke-linejoin:round;stroke-miterlimit:4;stroke-dasharray:none;stroke-dashoffset:0;stroke-opacity:1"
       id="path835"
       cx="6.3499999"
       cy="6.3499999"
       r="6.2177081" />
  </g>
  <g
     inkscape:groupmode="layer"
     id="layer2"
     inkscape:label="charactors">
    <g
       id="g220"
       transform="translate(1.3931726,-2.5544412)"
       style="fill:#000000;fill-opacity:1">
      <path
         style="fill:#000000;fill-opacity:1;stroke:#000000;stroke-width:0.1;stroke-linejoin:round;stroke-miterlimit:4;stroke-dasharray:none;stroke-dashoffset:0;stroke-opacity:1"
         id="path190"
         d="M 0.96614918,4.8700803 C 1.1990072,4.6735682 1.4188197,4.4624452 1.6406791,4.2537895 c 0.045347,-0.04155 0.1182202,-0.1099232 0.1686295,-0.1508678 0.01754,-0.014248 0.074132,-0.05152 0.054535,-0.04027 -0.057302,0.035883 -0.1146045,0.071766 -0.1719067,0.1076486 0.00441,0.00625 0.011841,0.011224 0.013215,0.018743 0.00457,0.024985 0.00274,0.050722 0.00412,0.076083 -0.0058,0.048405 -0.00928,0.097142 -0.017389,0.1452137 -0.02482,0.1471227 -0.06775,0.3206253 -0.1046355,0.4631325 C 1.5106332,5.1694736 1.4185702,5.4597821 1.3242666,5.7505057 1.1598295,6.2502099 0.97794007,6.7439068 0.8136407,7.2436407 0.77187506,7.3957314 0.70967342,7.5429146 0.67932394,7.6980864 c -0.015226,0.1244801 -0.0685236,0.094551 0.20053022,-0.1074248 0,0 -0.21446593,0.1146987 -0.21446593,0.1146987 v 0 C 0.89435344,7.6391298 0.88451435,7.7119114 0.89972104,7.5909317 0.92711388,7.4408394 0.97655416,7.2957536 1.015426,7.1484949 1.1666975,6.650243 1.3375287,6.1583556 1.5051004,5.6654202 1.6006431,5.3726021 1.6949081,5.0804053 1.7759746,4.783179 1.8079484,4.6659487 1.8694425,4.4354871 1.8952771,4.3102752 c 0.010505,-0.050913 0.0166,-0.1026364 0.024899,-0.1539545 -0.00144,-0.030415 0.00328,-0.06176 -0.00432,-0.091245 -0.00451,-0.017502 -0.013476,-0.050117 -0.030716,-0.044688 -0.1869672,0.058882 -0.3177134,0.1897489 -0.4533496,0.3192857 -0.224603,0.2150605 -0.4490238,0.4316053 -0.69553289,0.6218322 0,0 0.22989381,-0.091425 0.22989381,-0.091425 z" />
      <path
         style="fill:#000000;fill-opacity:1;stroke:#000000;stroke-width:0.1;stroke-linejoin:round;stroke-miterlimit:4;stroke-dasharray:none;stroke-dashoffset:0;stroke-opacity:1"
         id="path194"
         d="m 1.8067862,4.5722296 c 0.1681762,-0.071124 0.3390144,-0.1363313 0.5119672,-0.1949363 0.045639,-0.015465 0.090927,-0.032334 0.1375919,-0.044355 0.038037,-0.0098 0.077305,-0.013974 0.115957,-0.02096 0.032274,0.00386 0.066313,3.44e-4 0.096821,0.01157 0.068114,0.025038 0.1100924,0.084724 0.1382954,0.1479425 0.039211,0.087894 0.056885,0.1949842 0.054544,0.2902977 -0.00143,0.058404 -0.014536,0.1159351 -0.021802,0.1739027 -0.029084,0.065598 -0.04915,0.1359894 -0.087251,0.1967955 C 2.7067269,5.2061919 2.6478981,5.2714688 2.5894215,5.3358568 2.4622522,5.4758812 2.3564464,5.5630082 2.2039351,5.6723584 2.1456383,5.714157 2.0841879,5.7513746 2.0240098,5.7904162 c -0.012527,0.00813 0.024642,-0.016872 0.036962,-0.025307 -0.089275,0.036459 -0.1871967,0.090453 -0.2870045,0.058519 C 1.7177813,5.8056522 1.6827723,5.7602532 1.648542,5.71607 1.582065,5.640068 1.591868,5.639992 1.4079744,5.81574 c -0.019288,0.018434 0.015803,0.050977 0.022826,0.076716 0.103075,0.3777609 -0.057162,-0.1874753 0.084603,0.3176203 0.02126,0.075749 0.043536,0.1512092 0.065304,0.2268138 0.084882,0.2530078 0.1809867,0.5049285 0.3217281,0.7330956 0.044345,0.071892 0.094215,0.1403821 0.1459356,0.2071651 0.1190192,0.1536819 0.1536728,0.1776423 0.2884939,0.3058824 0.1085999,0.086284 0.2237376,0.172027 0.3629843,0.200297 0.031553,0.00641 0.064323,0.010422 0.096337,0.007 0.114096,-0.0122 0.3243865,-0.1738109 0.3587916,-0.1950725 0.017907,-0.020974 0.037507,-0.040609 0.053719,-0.062918 0.047289,-0.065076 0.084875,-0.1485741 0.099029,-0.2281907 0.00267,-0.015044 0.00307,-0.030409 0.0046,-0.045613 2.911e-4,-0.013539 5.821e-4,-0.027079 8.731e-4,-0.040618 0,0 -0.2179769,0.110358 -0.2179769,0.110358 v 0 c -3.969e-4,0.012779 -7.673e-4,0.025561 -0.00116,0.038341 -0.015841,0.1213528 -0.069274,0.2316454 -0.1591532,0.3161269 0.044545,-0.021505 0.090735,-0.039891 0.133636,-0.064514 0.025548,-0.014663 -0.052421,0.028979 -0.081354,0.034506 -0.031233,0.00597 -0.063918,0.00379 -0.095391,-7.409e-4 C 2.7516312,7.7318237 2.6343543,7.649805 2.5239042,7.5674052 2.3877326,7.4450074 2.3489019,7.4195569 2.2298322,7.2700924 2.1776931,7.204644 2.1279655,7.1369954 2.0836122,7.0660391 1.9421601,6.8397445 1.8458809,6.5890973 1.7680008,6.3350682 1.7163728,6.1360761 1.7050754,6.1044002 1.6661304,5.9127244 1.6571504,5.8685334 1.6485924,5.8242124 1.6422314,5.7795696 1.6394814,5.7602446 1.6578724,5.7168216 1.6388314,5.7211086 1.3520786,5.7856506 1.3633437,5.7862496 1.4400001,5.840746 1.4790341,5.887874 1.5188661,5.938409 1.5788797,5.9604584 1.6885238,6.000743 1.787362,5.9453687 1.8872881,5.9053504 2.0002066,5.8406953 2.1148289,5.7789291 2.2260436,5.7113852 2.4306603,5.587116 2.6216889,5.4325109 2.7812473,5.2538867 2.8411699,5.186804 2.901705,5.1190471 2.9490984,5.0425963 2.9885243,4.9789979 3.0094232,4.9056382 3.0395857,4.837159 3.0469226,4.7774328 3.0600274,4.7181349 3.0615964,4.65798 3.0641628,4.559863 3.046703,4.4462504 3.0079719,4.3549244 2.9784653,4.2853493 2.9340458,4.2184354 2.8607464,4.188234 2.8284773,4.1749387 2.7917238,4.1778332 2.7572126,4.1726315 c -0.040368,0.00696 -0.081406,0.010787 -0.1211042,0.020894 -0.047609,0.01212 -0.093617,0.029846 -0.1401464,0.045613 -0.167004,0.056588 -0.33223,0.1183577 -0.4970338,0.1810036 0,0 -0.1921409,0.1520867 -0.1921409,0.1520867 z" />
    </g>
    <g
       id="g224"
       transform="translate(0.3091893,0.4026865)"
       style="fill:#000000;fill-opacity:1">
      <path
         style="fill:#000000;fill-opacity:1;stroke:#000000;stroke-width:0.1;stroke-linejoin:round;stroke-miterlimit:4;stroke-dasharray:none;stroke-dashoffset:0;stroke-opacity:1"
         id="path196"
         d="m 4.2666456,7.1584047 c 0.011935,0.00533 0.022823,0.014499 0.035809,0.015986 0.072703,0.00832 0.1383665,-0.015147 0.202511,-0.049769 C 4.6247224,7.0599836 4.744185,6.9936319 4.8555645,6.915438 5.013602,6.8044877 5.1345417,6.6373337 5.2560561,6.4931017 5.5726824,6.0456114 5.8284154,5.5591347 6.0757701,5.0711139 6.2584133,4.7107662 6.1404565,4.9265853 6.3013846,4.6414438 c 0.023654,-0.022701 0.097336,-0.08757 0.07096,-0.068101 -0.060027,0.044309 -0.1341168,0.078783 -0.1722813,0.142892 -0.019595,0.032916 0.017187,0.074981 0.019833,0.1131956 0.00752,0.1086268 0.00992,0.2176034 0.010604,0.3264881 0.00668,1.0563911 -0.029267,-0.2141185 0.014213,1.0153547 0.02842,0.5197203 0.088694,1.0375392 0.1826549,1.5494839 0.028129,0.1532615 0.089023,0.4399116 0.1364456,0.6016016 0.017285,0.058936 0.040926,0.11582 0.061388,0.1737302 0.019592,0.032969 0.035259,0.068616 0.05878,0.098909 0.1059424,0.1364438 0.2412606,-0.00628 0.3490487,-0.091148 0.020042,-0.01578 0.026122,-0.1180994 0.027822,-0.1336426 -5.027e-4,-0.1019419 0.00454,-0.050672 -0.016047,-0.153719 0,0 -0.2102448,0.1120752 -0.2102448,0.1120752 v 0 c 0.01715,0.098504 0.013481,0.049409 0.011623,0.1472377 -0.00405,0.022892 -0.00515,0.046506 -0.012137,0.068678 -0.026202,0.083131 -0.1404059,0.150904 0.1509607,-0.031965 0.012554,-0.00788 -0.030473,0.00552 -0.04446,6.085e-4 C 6.8787993,8.4914845 6.8557803,8.438081 6.8188924,8.388116 6.7950905,8.332867 6.7677056,8.279027 6.7474848,8.2223688 6.6906899,8.0632304 6.6200691,7.789755 6.5864829,7.6360934 6.4758974,7.1301485 6.4087618,6.6154445 6.3880981,6.0978245 6.3866693,5.9080828 6.3804437,5.718316 6.3838383,5.5285994 6.3865979,5.3743828 6.398901,5.220485 6.4065528,5.0664337 6.4122651,4.9514527 6.4241396,4.8366251 6.4239253,4.7215022 6.4238425,4.6765135 6.4496851,4.5970943 6.4056717,4.587776 6.2264093,4.5498231 6.1769288,4.6368956 6.1004539,4.7317191 5.8904298,5.151548 6.1711855,4.586661 5.8989404,5.1510477 5.6611765,5.6439519 5.4043394,6.1311347 5.0746154,6.5697972 4.9985009,6.6556696 4.9273867,6.7462484 4.8462718,6.8274141 4.7852475,6.8884767 4.7112838,6.9354673 4.649213,6.995466 4.639813,7.004556 4.698063,6.976863 4.686131,6.98221 4.626579,7.008887 4.5727576,7.040243 4.5062593,7.03845 4.4957713,7.038159 4.4867543,7.03072 4.4770003,7.026856 c 0,0 -0.2103544,0.1315431 -0.2103544,0.1315431 z" />
      <path
         style="fill:#000000;fill-opacity:1;stroke:#000000;stroke-width:0.1;stroke-linejoin:round;stroke-miterlimit:4;stroke-dasharray:none;stroke-dashoffset:0;stroke-opacity:1"
         id="path198"
         d="m 5.2842395,6.3231698 c 0.28912,0.1019083 0.5878139,0.1744213 0.8858289,0.2450386 0,0 0.1829589,-0.1268158 0.1829589,-0.1268158 v 0 C 6.0586818,6.3781143 5.762377,6.3099751 5.4850278,6.1902231 c 0,0 -0.2007883,0.1329467 -0.2007883,0.1329467 z" />
    </g>
    <g
       id="g232"
       transform="translate(0.37012133,1.9856008)"
       style="fill:#000000;fill-opacity:1">
      <g
         id="g227"
         style="fill:#000000;fill-opacity:1">
        <path
           style="fill:#000000;fill-opacity:1;stroke:#000000;stroke-width:0.1;stroke-linejoin:round;stroke-miterlimit:4;stroke-dasharray:none;stroke-dashoffset:0;stroke-opacity:1"
           id="path214"
           d="M 9.8267045,5.251637 C 9.8139066,5.2461707 9.8016035,5.2393603 9.7883137,5.2352355 9.6389059,5.1888588 9.433026,5.1833081 9.2786884,5.1920261 c -0.052143,0.00294 -0.1038833,0.010877 -0.155825,0.016317 -0.048597,0.013076 -0.098214,0.022823 -0.1457897,0.039229 -0.044928,0.015494 -0.089273,0.033514 -0.1310177,0.056229 C 8.6707177,5.3992128 8.5579708,5.4511984 8.4316109,5.5805739 8.3427225,5.6715839 8.3149614,5.7212121 8.2424753,5.8258495 8.1346237,6.0030259 8.0404315,6.189405 7.9741026,6.3863121 7.936839,6.4969352 7.9327057,6.5276703 7.9072932,6.6393207 c -0.015825,0.1176258 -0.025254,0.2340377 0.00358,0.3505761 0.017833,0.07207 0.057073,0.1691307 0.092372,0.2338867 0.021982,0.040326 0.048953,0.077726 0.073429,0.1165894 0.026464,0.036224 0.05089,0.074027 0.079391,0.1086702 0.120501,0.1464678 0.2859524,0.2958777 0.4532635,0.3860379 0.048416,0.026091 0.099991,0.045837 0.149987,0.068755 0.2105046,0.088543 0.434054,0.1382996 0.6601463,0.1647299 0.068959,0.00101 0.1409443,0.00355 0.2079895,-0.016296 0.09635,-0.02852 0.1748716,-0.099077 0.2609543,-0.1509085 0.02068,-0.03447 0.011951,-0.015557 0.025064,-0.057241 0,0 -0.2228073,0.1030764 -0.2228073,0.1030764 v 0 c -0.017346,0.034713 -0.00669,0.019645 -0.030898,0.045932 0.063173,-0.035295 0.1261965,-0.07086 0.1895192,-0.1058854 0.00946,-0.00523 -0.017952,0.012295 -0.027908,0.016492 -0.06449,0.027193 -0.1388015,0.022489 -0.2068586,0.026051 C 9.3860285,7.9109135 9.1597802,7.8664741 8.9466411,7.7796558 8.8976445,7.7572721 8.8471273,7.7379562 8.7996508,7.712507 8.6278748,7.6204291 8.4764069,7.4823147 8.3534826,7.3321639 8.3254217,7.297888 8.300912,7.2608524 8.2746267,7.2251969 8.2510629,7.1869553 8.2250766,7.150106 8.2039395,7.1104722 8.1687375,7.0444661 8.1333834,6.9544472 8.1163955,6.8811502 8.0900986,6.7676857 8.098478,6.6532346 8.1152049,6.5391617 8.1398852,6.4299006 8.144158,6.398479 8.1805313,6.2902589 8.2461739,6.0949556 8.339996,5.9100542 8.4494925,5.7359049 8.5254848,5.6297697 8.5497605,5.5858118 8.6433024,5.4946433 c 0.033335,-0.03249 0.08623,-0.04831 0.1066644,-0.090134 0.013486,-0.027603 -0.1111883,0.052135 -0.082601,0.040883 0.291691,-0.1148091 -0.037809,-0.00984 0.2742679,-0.1022716 0.051603,-0.00612 0.1029576,-0.014938 0.1548098,-0.018354 0.1545455,-0.010179 0.339715,-0.00364 0.4884399,0.045809 0.011695,0.00389 0.022476,0.010118 0.033714,0.015176 0,0 0.2081128,-0.1341167 0.2081128,-0.1341167 z" />
      </g>
      <path
         style="fill:#000000;fill-opacity:1;stroke:#000000;stroke-width:0.1;stroke-linejoin:round;stroke-miterlimit:4;stroke-dasharray:none;stroke-dashoffset:0;stroke-opacity:1"
         id="path216"
         d="m 8.9673281,6.8122889 c 0.1493205,0.052065 0.2935962,0.1189236 0.4302143,0.198605 0.039625,0.023111 0.079358,0.046318 0.1165805,0.073129 0.03685,0.026542 0.070119,0.057731 0.105179,0.086597 0.031032,0.036195 0.066762,0.068842 0.093097,0.1085858 0.068055,0.1027057 0.1067086,0.218685 0.1363117,0.3372162 0.03264,0.1306883 0.056069,0.300708 0.065797,0.4347276 0.00521,0.071761 0.00475,0.1438204 0.00713,0.2157307 0.00167,0.1687362 -0.012438,0.3365563 -0.030908,0.5040124 0,0 0.2051294,-0.102172 0.2051294,-0.102172 v 0 c 0.01207,-0.1666703 0.02099,-0.3335316 0.01819,-0.5007655 -0.0029,-0.072254 -0.0031,-0.1446625 -0.0087,-0.2167617 C 10.095343,7.8205189 10.07052,7.6392341 10.040594,7.5114244 10.011761,7.3882813 9.9761502,7.2694093 9.9074831,7.1618673 9.8811439,7.120615 9.8446644,7.0867933 9.813255,7.0492564 9.7776161,7.01955 9.743954,6.9872973 9.7063382,6.9601375 9.6687022,6.9329633 9.6280397,6.9102123 9.5880448,6.8866474 9.4535613,6.8074105 9.3133247,6.7386276 9.1707159,6.6753908 c 0,0 -0.2033854,0.1368981 -0.2033854,0.1368981 z" />
    </g>
  </g>
</svg>
